<svg xmlns="http://www.w3.org/2000/svg" version="1.1" xmlns:xlink="http://www.w3.org/1999/xlink" xmlns:svgjs="http://svgjs.dev/svgjs" viewBox="0 0 800 800" opacity="1"><defs><linearGradient x1="50%" y1="0%" x2="50%" y2="100%" id="cccoil-grad"><stop stop-color="hsl(265, 55%, 30%)" stop-opacity="1" offset="0%"></stop><stop stop-color="hsl(265, 55%, 60%)" stop-opacity="1" offset="100%"></stop></linearGradient></defs><g stroke="url(#cccoil-grad)" fill="none" stroke-linecap="round"><circle r="396" cx="400" cy="400" stroke-width="7" stroke-dasharray="1791 2488" transform="rotate(360, 400, 400)"></circle><circle r="379.5" cx="400" cy="400" stroke-width="7" stroke-dasharray="1642 2384" transform="rotate(344, 400, 400)"></circle><circle r="363" cx="400" cy="400" stroke-width="7" stroke-dasharray="1499 2281" transform="rotate(329, 400, 400)"></circle><circle r="346.5" cx="400" cy="400" stroke-width="7" stroke-dasharray="1363 2177" transform="rotate(313, 400, 400)"></circle><circle r="330" cx="400" cy="400" stroke-width="7" stroke-dasharray="1233 2073" transform="rotate(297, 400, 400)"></circle><circle r="313.5" cx="400" cy="400" stroke-width="7" stroke-dasharray="1110 1970" transform="rotate(282, 400, 400)"></circle><circle r="297" cx="400" cy="400" stroke-width="7" stroke-dasharray="993 1866" transform="rotate(266, 400, 400)"></circle><circle r="280.5" cx="400" cy="400" stroke-width="7" stroke-dasharray="883 1762" transform="rotate(250, 400, 400)"></circle><circle r="264" cx="400" cy="400" stroke-width="7" stroke-dasharray="779 1659" transform="rotate(235, 400, 400)"></circle><circle r="247.5" cx="400" cy="400" stroke-width="7" stroke-dasharray="682 1555" transform="rotate(219, 400, 400)"></circle><circle r="231" cx="400" cy="400" stroke-width="7" stroke-dasharray="591 1451" transform="rotate(203, 400, 400)"></circle><circle r="214.5" cx="400" cy="400" stroke-width="7" stroke-dasharray="506 1348" transform="rotate(188, 400, 400)"></circle><circle r="198" cx="400" cy="400" stroke-width="7" stroke-dasharray="428 1244" transform="rotate(172, 400, 400)"></circle><circle r="181.5" cx="400" cy="400" stroke-width="7" stroke-dasharray="357 1140" transform="rotate(157, 400, 400)"></circle><circle r="165" cx="400" cy="400" stroke-width="7" stroke-dasharray="292 1037" transform="rotate(141, 400, 400)"></circle><circle r="148.5" cx="400" cy="400" stroke-width="7" stroke-dasharray="234 933" transform="rotate(125, 400, 400)"></circle><circle r="132" cx="400" cy="400" stroke-width="7" stroke-dasharray="182 829" transform="rotate(110, 400, 400)"></circle><circle r="115.5" cx="400" cy="400" stroke-width="7" stroke-dasharray="136 726" transform="rotate(94, 400, 400)"></circle><circle r="99" cx="400" cy="400" stroke-width="7" stroke-dasharray="97 622" transform="rotate(78, 400, 400)"></circle><circle r="82.5" cx="400" cy="400" stroke-width="7" stroke-dasharray="65 518" transform="rotate(63, 400, 400)"></circle><circle r="66" cx="400" cy="400" stroke-width="7" stroke-dasharray="39 415" transform="rotate(47, 400, 400)"></circle><circle r="49.5" cx="400" cy="400" stroke-width="7" stroke-dasharray="19 311" transform="rotate(31, 400, 400)"></circle><circle r="33" cx="400" cy="400" stroke-width="7" stroke-dasharray="6 207" transform="rotate(16, 400, 400)"></circle><circle r="16.5" cx="400" cy="400" stroke-width="7" stroke-dasharray="0 104"></circle></g></svg>